<svg viewBox="0 0 960 960" xmlns="http://www.w3.org/2000/svg"><circle cx="480" cy="480" fill="#e9540d" r="480"/><g fill="#fff"><path d="m112.26 427.24c1.53 11.01 3.8 20.52 6.94 28.82 3.14 8.28 7.14 15.16 12.16 20.41 5.02 5.24 11.04 8.3 18.25 8.37 7.3.08 14.33-2.62 20.92-8.77 6.59-6.14 12.5-14.89 17.57-26.38 5.07-11.48 9.12-25.15 12.04-40.81 2.92-15.64 4.41-32.3 4.4-49.45 0-16.74-.97-29.71-2.89-38.66s-4.79-15.05-8.55-18.21-8.37-3.79-13.73-1.93-11.52 5.24-18.28 10.17c-1.96 1.43-4.03 3.14-6.2 5.14s-4.18 4.42-6.04 7.2c-1.86 2.79-3.38 6.05-4.58 9.74s-1.79 7.81-1.79 12.43.67 7.52 2.04 8.77 3.59.9 6.75-1.07c1.45-.9 2.98-2 4.6-3.32 1.61-1.31 3.17-2.41 4.69-3.29 5.34-3.11 8.13-1.97 8.12 3.25 0 2.34-.6 5.07-1.78 8.15-1.18 3.09-2.72 6.05-4.6 8.88-1.88 2.84-3.96 5.4-6.23 7.7s-4.5 3.99-6.71 5.11c-2.54 1.29-4.81 1.71-6.82 1.3-2.01-.4-3.66-1.48-4.98-3.23s-2.33-4-3.03-6.79c-.71-2.79-1.06-5.97-1.06-9.6 0-8.62.72-16.19 2.18-22.91 1.46-6.71 3.44-12.81 5.97-18.26 2.53-5.43 5.5-10.29 8.95-14.42 3.45-4.12 7.13-7.79 11.05-10.9 6.69-5.28 12.31-11.5 16.61-19.17 4.31-7.65 6.52-15.47 6.52-23.28 0-7.04-.94-12.61-2.81-16.54-1.86-3.93-4.36-6.4-7.44-7.32s-6.68-.23-10.73 2.1-8.27 6.07-12.63 11.12c-7.09 8.23-13.17 18.7-18.39 30.51-5.22 11.83-9.41 24.44-12.75 37.39-3.34 12.97-5.8 26.17-7.49 39.68-1.7 13.53-2.52 27.04-2.52 41.29 0 13.75.74 25.76 2.26 36.78z"/><path d="m287 303.33c2.59-3.8 5.49-8.63 8.71-14.53 3.22-5.89 6.15-13.19 8.8-21.92 2.64-8.72 3.98-19.67 3.98-32.75 0-17.43-1.91-32.28-5.69-44.22s-8.65-21.18-14.55-27.56-12.54-9.97-19.84-10.73-14.45 1.07-21.46 5.25c-5.33 3.19-10.35 8.18-15.05 14.78s-8.78 14.27-12.25 22.88c-3.48 8.61-6.24 17.86-8.31 27.73s-3.09 19.81-3.09 29.99c0 8.96.49 17.43 1.47 25.5.98 8.08 2.09 16.1 3.34 24.1s2.37 16.14 3.36 24.39 1.49 17.02 1.49 26.19c0 6.88-.55 13.78-1.65 20.61s-2.3 13.59-3.6 20.26-2.49 13.31-3.57 19.93-1.62 13.25-1.62 19.95v2.44c.21 15.2 2.65 26.22 7.45 33.43 4.8 7.18 11.19 10.95 19.33 10.91 3.58-.02 7.23-1.39 10.94-4.2s7.07-6.72 10.06-11.76c2.98-5.04 5.43-11.1 7.31-18.15 1.88-7.06 2.83-14.63 2.83-22.63 0-6.86-.75-13.07-2.23-18.58s-3.07-10.79-4.77-15.84c-1.7-5.04-3.28-10.17-4.74-15.39-1.46-5.21-2.19-10.92-2.19-17.17 0-3.79.67-7.19 2.02-10.2s2.98-4.76 4.91-5.22c1.92-.46 3.55 1.43 4.86 5.7s2.46 9.92 3.43 16.95 1.81 14.99 2.5 23.86 1.38 17.48 2.07 25.83 1.41 16.08 2.17 23.21c.75 7.12 1.65 12.52 2.7 16.2 1.16 4.36 2.59 7.93 4.28 10.69s3.57 4.95 5.63 6.56 4.25 2.71 6.56 3.27 4.61.84 6.88.82c3.59-.04 7.23-1.64 10.92-4.84 3.69-3.21 7.04-7.55 10.03-13.02 2.99-5.48 5.45-11.78 7.36-18.9s2.86-14.67 2.86-22.59c0-8.41-1.2-16.51-3.6-24.2-2.4-7.68-5.37-14.89-8.91-21.57s-7.39-12.86-11.55-18.52-7.96-10.71-11.41-15.21c-3.45-4.49-6.32-8.47-8.61-11.99-2.3-3.52-3.44-6.53-3.44-9.12 0-3.28 1.29-6.81 3.88-10.61zm-37.3-53.41c1.73-5.28 4.05-8.58 6.99-9.78 1.47-.6 2.91-.51 4.33.29s2.67 2.14 3.76 4.01c1.09 1.88 1.95 4.2 2.58 6.95.63 2.76.95 5.75.95 8.96 0 2.99-.4 6.46-1.21 10.39-.8 3.93-1.84 7.7-3.09 11.29-1.26 3.6-2.63 6.7-4.1 9.32-1.48 2.62-2.95 4.15-4.41 4.62-1.92.61-3.43-.12-4.55-2.21-1.12-2.08-1.96-4.73-2.51-7.98-.56-3.24-.92-6.77-1.09-10.59-.17-3.81-.25-7.05-.25-9.71 0-5.09.86-10.26 2.59-15.55z"/><path d="m624.81 214.77c1.11 9.1 2.63 18.39 4.54 27.85 1.91 9.47 4.13 19.64 6.65 30.49 2.51 10.85 5.17 23.52 7.98 37.94.97 5.06 1.79 10.14 2.46 15.24.67 5.11 1.27 10.43 1.82 15.99.55 5.55 1.09 11.53 1.64 17.91.54 6.39 1.24 13.63 2.09 21.71 1.33 13.23 2.9 25.82 4.7 37.75s4.2 22.46 7.18 31.53 6.69 16.28 11.11 21.64c4.41 5.36 9.76 7.98 15.98 7.99 6.22.02 11.35-2.55 15.46-7.53s7.55-11.38 10.37-19.16 5.09-16.56 6.84-26.37 3.32-19.64 4.73-29.52c.65-4.84 1.27-10.09 1.86-15.76s1.18-11.36 1.78-17.09c.59-5.73 1.23-11.26 1.93-16.59.69-5.33 1.42-10.1 2.16-14.3 1.49-7.13 3.48-14.5 5.96-21.98 2.47-7.48 4.93-15.26 7.36-23.32s4.51-16.71 6.24-26 2.59-19.54 2.59-30.97c0-7.22-.56-13.82-1.68-19.87s-2.62-11.41-4.53-16.07c-1.9-4.66-4.13-8.71-6.69-12.11s-5.27-6.11-8.14-8.08c-6.6-4.54-11.67-5.13-15.06-1.84-3.4 3.28-5.94 8.73-7.61 16.24-1.56 6.46-2.78 14.9-3.67 25.27-.9 10.38-1.57 20.52-2.01 30.4-.34 7.69-.95 15.94-1.85 24.8-.9 8.87-2.03 17.02-3.38 24.49-1.36 7.47-2.89 13.59-4.59 18.34-1.71 4.76-3.59 6.91-5.66 6.39-1.49-.38-2.88-1.98-4.14-4.84-1.27-2.86-2.4-6.38-3.39-10.58s-1.86-9.02-2.61-14.47c-.76-5.45-1.43-10.83-2.01-16.13-.7-7.44-1.31-15.41-1.84-23.89s-1.05-16.98-1.58-25.49-1.14-16.72-1.85-24.64c-.71-7.91-1.53-15.01-2.47-21.28-2.12-13.35-5.58-24.4-10.41-33.08-4.83-8.67-9.98-14.14-15.44-16.19-8.5-3.21-14.75.41-18.64 10.73-3.89 10.31-5.85 25.19-5.85 44.37 0 10.97.56 21.01 1.67 30.1z"/><path d="m808.81 289.7c-.58-4.24-1.22-9.53-1.91-15.91s-1.52-13.36-2.48-20.97c-.97-7.61-2.18-15.14-3.65-22.61-1.47-7.46-3.31-14.4-5.54-20.78-2.23-6.37-4.98-11.42-8.31-14.91-2.52-2.65-5.28-4.29-8.28-4.79s-5.78.38-8.31 2.66-4.67 5.73-6.39 10.29c-1.72 4.57-2.59 10.48-2.59 17.57 0 7.34.93 15.11 2.77 23.17 1.84 8.07 4.16 16.38 6.93 24.86 2.77 8.49 5.69 16.96 8.74 25.38s5.88 16.74 8.51 24.95c2.62 8.22 4.76 16.2 6.43 24.03s2.5 15.33 2.5 22.69c0 5.64-.83 11.57-2.5 18.01-1.67 6.45-3.53 13.03-5.58 19.8s-3.95 13.49-5.69 20.08c-1.74 6.6-2.62 12.76-2.62 18.29 0 9.91 1.14 18.4 3.4 25.24 2.25 6.84 5.09 12.13 8.47 15.88 3.37 3.75 6.96 6.31 10.74 7.76 3.77 1.45 7.25 2.04 10.44 1.89 3.5-.17 6.92-1.15 10.25-2.8s6.23-4.1 8.74-7.23c2.51-3.14 4.5-7 6.03-11.58 1.52-4.59 2.26-10.05 2.27-16.63 0-5.74-.66-11.38-2-17.17s-2.86-11.79-4.56-18.06c-1.71-6.26-3.27-12.73-4.7-19.36-1.42-6.63-2.15-13.3-2.15-19.8 0-6.86.6-12.93 1.79-17.96s2.62-9.49 4.29-13.29 3.49-7.04 5.46-9.67c1.96-2.63 3.71-5.21 5.26-7.82 1.55-2.6 2.83-5.35 3.87-8.33 1.04-2.99 1.55-6.79 1.55-11.64 0-5-.45-10.1-1.37-15.41s-2.17-10.73-3.8-16.27-3.48-10.8-5.58-15.69-4.36-9.31-6.78-13.13c-2.61-4.12-4.89-5.86-6.79-5.11-1.89.75-3.52 3.02-4.87 6.79s-2.48 8.36-3.39 13.7c-.91 5.35-1.73 10.51-2.45 15.45s-1.36 9.03-1.93 12.22-1.27 4.42-2.11 3.67c-.84-.76-1.55-3.23-2.13-7.47z"/><path d="m215.68 502.79c-3.4 2.54-6.21 6.06-8.46 10.55-2.26 4.5-3.96 9.7-5.12 15.67s-1.74 12.49-1.74 19.67c0 16.15-.58 31.25-1.73 45.07-1.15 13.83-2.43 27.13-3.82 39.86-1.39 12.74-2.65 25.3-3.78 37.75s-1.69 25.62-1.69 39.71c0 5.99.46 12.68 1.4 20.18.93 7.49 2.36 14.93 4.3 22.36 1.94 7.42 4.48 14.42 7.68 20.97 3.19 6.54 7.01 11.6 11.49 14.95 6.98 5.22 12.92 7.53 17.68 6.99 4.76-.55 8.58-3.09 11.39-7.51 2.82-4.42 4.79-10.46 5.91-18 1.11-7.55 1.68-15.7 1.68-24.4s-.79-16.93-2.34-24.6c-1.56-7.68-3.31-15.33-5.24-22.94s-3.66-15.24-5.19-22.91c-1.53-7.66-2.29-15.79-2.29-24.46 0-2.38.05-5.19.16-8.4.11-3.22.35-6.18.74-8.89.38-2.71.93-4.94 1.64-6.7s1.61-2.49 2.72-2.19c.88.24 1.65 2.32 2.31 6.24.66 3.93 1.35 8.81 2.07 14.66s1.5 12.24 2.33 19.18c.83 6.93 1.86 13.46 3.1 19.6 1.23 6.13 2.69 11.43 4.38 15.88 1.69 4.46 3.78 7.17 6.28 8.1 2.5.92 4.59-.26 6.26-3.59 1.66-3.33 3.05-7.77 4.15-13.31 1.1-5.55 2-11.7 2.69-18.47.7-6.76 1.39-13.02 2.09-18.78s1.48-10.52 2.36-14.3c.87-3.77 1.95-5.53 3.24-5.26 1.41.29 2.55 2.06 3.43 5.3.88 3.25 1.32 7.59 1.32 13.02 0 9.68-.59 17.79-1.77 24.31s-2.5 13.14-3.96 19.84c-1.46 6.71-2.78 14.28-3.94 22.73s-1.74 19.38-1.74 32.84c0 9.98.78 19.35 2.36 28.18 1.57 8.82 3.79 16.8 6.67 23.94 2.88 7.13 6.36 13.26 10.47 18.34 4.11 5.07 8.63 8.63 13.58 10.56 4.83 1.88 9.31 1.83 13.41-.18 4.1-2.02 7.67-6.72 10.7-14.1 3.03-7.39 5.42-17.75 7.16-31.02s2.61-30.23 2.61-50.74c0-15.26-.84-30.57-2.52-45.85s-3.51-29.77-5.49-43.48-3.8-26.4-5.46-38.1c-1.66-11.69-2.49-21.7-2.49-30.09 0-12.33-.34-23.4-1.01-33.18-.68-9.77-1.87-18.02-3.59-24.72s-4.1-11.85-7.14-15.47c-3.04-3.61-6.86-5.45-11.42-5.55-4.68-.1-8.7 2.21-12.08 6.84-3.38 4.64-6.32 10.46-8.84 17.46s-4.71 14.53-6.56 22.6c-1.86 8.07-3.54 15.51-5.04 22.34-1.5 6.84-2.94 12.42-4.31 16.77-1.38 4.36-2.81 6.38-4.29 6.11-1.94-.35-3.52-2.97-4.77-7.81s-2.46-10.78-3.64-17.8-2.44-14.57-3.78-22.63-2.99-15.54-4.92-22.43c-1.94-6.88-4.34-12.62-7.18-17.22-2.85-4.6-6.38-6.91-10.56-7.06-4.5-.16-8.44 1.08-11.83 3.61z"/><path d="m358.94 844.65c7.25 13.24 17.41 21.6 30.62 24.2 8.34 1.63 14.79.15 19.32-4.25 4.52-4.4 7.9-10.5 10.1-18.19 2.2-7.71 3.57-16.59 4.09-26.6s1.04-19.91 1.56-29.68 1.43-18.92 2.73-27.46 3.71-15.3 7.23-20.33c.39-.76.88-1.25 1.47-1.48.59-.22 1.14-.32 1.66-.29 2.48.15 4.53 3.08 6.17 8.82 1.63 5.74 3.26 12.86 4.9 21.36 1.63 8.51 3.46 17.68 5.49 27.51 2.03 9.84 4.68 19.04 7.95 27.59 3.27 8.54 7.46 15.72 12.57 21.45s11.46 8.57 19.06 8.36c6.02-.16 11.29-2.39 15.8-6.6s8.23-9.87 11.17-16.92c2.94-7.06 5.12-15.51 6.55-25.33s2.15-20.37 2.15-31.65c0-12.59-.68-23.68-2.05-33.3-1.37-9.61-3.16-18.37-5.38-26.27s-4.79-15.27-7.73-22.13-5.98-13.74-9.12-20.65c-3.14-6.9-6.28-14.1-9.42-21.57s-6.09-15.96-8.84-25.45c-1.84-6.58-3.51-14.5-5.01-23.74-1.51-9.23-2.95-18.47-4.32-27.72-1.38-9.24-2.75-17.95-4.13-26.14-1.38-8.18-2.98-14.52-4.81-19.01-3.67-9.24-7.95-15.46-12.86-18.64s-10.23-4.78-15.97-4.81c-3.91-.02-7.86.62-11.82 1.9-3.97 1.29-7.8 3.35-11.49 6.18-3.7 2.84-7.13 6.44-10.29 10.8-3.17 4.37-5.9 9.76-8.22 16.18-2.06 5.65-3.44 12.07-4.15 19.28-.71 7.22-1.19 15.08-1.45 23.59-.26 8.52-.48 17.49-.67 26.9-.19 9.42-.74 19.13-1.64 29.13s-2.34 20.13-4.33 30.37c-1.99 10.23-4.96 20.4-8.91 30.4-2.42 6.36-5.32 12.99-8.67 19.87-3.36 6.88-6.52 14.1-9.48 21.66-2.96 7.57-5.47 15.32-7.54 23.32s-3.1 16.35-3.1 25.14c0 22.84 3.58 40.9 10.83 54.18zm65.79-203.72c.71-3.76 1.75-7.24 3.12-10.47 1.37-3.22 2.96-5.84 4.78-7.88 1.82-2.03 3.91-3.01 6.26-2.94 2.22.07 4.34 1.18 6.36 3.34s3.79 4.97 5.29 8.42c1.5 3.46 2.68 7.17 3.53 11.14s1.28 7.8 1.28 11.49c0 3.95-.52 7.24-1.57 9.84-1.05 2.61-2.39 4.81-4.02 6.6-1.64 1.79-3.4 3.05-5.29 3.77s-3.62 1.04-5.19.98c-1.7-.07-3.46-.61-5.28-1.62-1.83-1-3.52-2.4-5.08-4.19-1.56-1.78-2.83-4.14-3.8-7.08-.97-2.93-1.46-6.36-1.46-10.29 0-3.66.36-7.37 1.07-11.14z"/><path d="m545.05 515.97c-6.1 13.25-9.15 32.75-9.15 58.41 0 10.74.45 21.33 1.36 31.75.91 10.43 1.95 20.79 3.12 31.05 1.17 10.27 2.21 20.53 3.11 30.78.91 10.26 1.36 20.73 1.36 31.43 0 8.36-.39 17.2-1.17 26.53-.78 9.34-1.65 18.82-2.63 28.44-.97 9.63-1.85 19.06-2.63 28.28-.78 9.23-1.17 18.04-1.17 26.41 0 13.08 1.43 23.93 4.29 32.48 2.85 8.54 6.52 15.18 10.98 19.85 4.46 4.66 9.46 7.66 14.98 8.95s10.96 1.31 16.32.09c11.85-2.7 22.4-10.34 31.7-22.35 9.3-12.02 17.12-26.9 23.55-44.28 6.42-17.39 11.29-36.51 14.67-57.33 3.37-20.82 5.05-42.02 5.05-63.88 0-23.55-1.88-46.12-5.68-68.18-3.8-22.05-9.31-41.71-16.61-59.17-7.3-17.44-16.2-31.72-26.79-42.69-10.59-10.96-22.66-16.6-36.23-16.51-12.82.08-22.34 6.68-28.43 19.94zm55.23 83.33c2.33 2.85 4.35 6.47 6.04 10.86 1.7 4.39 3.04 9.23 4.05 14.53 1 5.31 1.5 10.46 1.5 15.49 0 6.79-.53 13.33-1.6 19.64-1.07 6.32-2.54 12.01-4.42 17.07-1.89 5.07-4.09 9.25-6.61 12.53-2.53 3.28-5.18 5.12-7.97 5.5-2.66.36-4.73-1.42-6.2-5.34-1.47-3.91-2.55-8.73-3.25-14.43s-1.09-11.5-1.15-17.4c-.07-5.9-.1-10.64-.1-14.24 0-4.1.1-8.93.29-14.47.19-5.53.7-10.77 1.53-15.71.83-4.93 2.04-9.12 3.63-12.57 1.59-3.44 3.78-5.25 6.57-5.45s5.35 1.13 7.68 3.99z"/><path d="m691.51 496.68c-4.66 2.17-8.88 5.64-12.63 10.45s-6.79 11.02-9.1 18.61-3.47 16.92-3.47 27.87c0 9.29.56 17.99 1.69 26.05s2.34 16.14 3.64 24.21c1.3 8.08 2.51 16.71 3.63 25.9 1.12 9.2 1.67 19.75 1.67 31.73 0 10.57-.88 20.24-2.65 29.1s-3.69 17.51-5.76 25.96c-2.08 8.45-4.01 17.09-5.8 25.9s-2.69 18.42-2.69 28.73c0 14.88 1.44 26.68 4.3 35.21s6.69 14.58 11.45 18.04 10.18 4.75 16.22 3.85 12.26-3.3 18.63-7.16c7.26-4.39 14.64-10 22.1-16.77s14.16-15.28 20.16-25.17c6-9.9 10.8-21.21 14.51-33.67 3.71-12.49 5.52-26.51 5.52-42.44 0-6.72-.24-12.75-.73-18.13-.49-5.37-1.42-9.78-2.79-13.26-1.38-3.48-3.28-5.81-5.72-7.01-2.45-1.19-5.64-.85-9.63 1.05-2.46 1.17-4.91 2.67-7.36 4.51-2.45 1.85-4.89 3.77-7.32 5.79-2.44 2.02-4.92 4-7.44 5.93-2.53 1.93-5.1 3.44-7.71 4.51-2.84 1.16-5.48.85-7.91-.99-2.44-1.83-3.66-6.23-3.66-13.11 0-4 .86-7.4 2.58-10.18s3.87-5.31 6.45-7.6c2.57-2.28 5.32-4.52 8.24-6.71 2.91-2.19 5.61-4.53 8.11-7 2.49-2.47 4.54-5.25 6.17-8.33 1.62-3.08 2.43-6.77 2.43-11.11 0-4.13-.91-7.44-2.74-10s-3.55-4.47-5.14-5.72c-2.65-1.99-5.59-2.4-8.82-1.15-3.24 1.26-6.29 2.24-9.14 2.93-.88.21-1.9.35-3.05.4-1.16.06-2.24-.19-3.24-.73s-1.86-1.46-2.59-2.75c-.73-1.28-1.09-3.16-1.09-5.61s.5-4.83 1.51-7.15c1-2.31 2-4.1 3-5.4 2.33-3.32 5.03-5.91 8.09-7.8s6.17-3.67 9.34-5.35c3.16-1.68 6.25-3.45 9.25-5.3s5.65-4.35 7.98-7.47 4.17-7.08 5.55-11.86c1.38-4.79 2.06-10.86 2.06-18.3 0-7.83-1.27-14.11-3.82-19-2.56-4.88-6.09-8.65-10.66-11.28s-10.02-4.44-16.42-5.37c-6.41-.92-13.47-1.35-21.25-1.21-4.62.08-9.26 1.18-13.92 3.34z"/><path d="m619 262.38c-1.43-15.01-3.49-29.69-6.18-44.07-2.69-14.37-5.98-28.01-9.88-40.89-3.91-12.87-8.39-24.35-13.47-34.38-5.08-10.02-10.72-18.31-16.94-24.76s-12.88-10.28-19.99-11.34c-10.21-1.52-19.68 3.02-28.34 13.57-8.67 10.55-16.19 25.37-22.54 44.25-6.35 18.89-11.29 40.86-14.83 65.76-3.54 24.91-5.31 51.12-5.31 78.56 0 22.96 1.54 44.15 4.62 63.55 3.08 19.41 7.47 36.19 13.16 50.33s12.63 25.12 20.78 32.92 17.3 11.7 27.41 11.75c11.78.07 22.23-4.43 31.37-13.28 9.13-8.86 16.8-20.71 23.04-35.5s10.99-31.82 14.3-51.18c3.3-19.36 4.95-39.64 4.95-61.11 0-14.47-.72-29.18-2.15-44.2zm-69.24 78.58c-17.02 0-30.82-32.1-30.82-71.69s13.8-71.69 30.82-71.69 30.82 32.1 30.82 71.69-13.8 71.69-30.82 71.69z"/><path d="m470.07 250.16c-1.51-15.55-3.67-30.55-6.48-44.99-2.82-14.43-6.25-27.84-10.3-40.17-4.05-12.32-8.69-22.91-13.91-31.71-5.22-8.79-10.98-15.53-17.28-20.16-6.3-4.62-13.01-6.37-20.1-5.22-10.19 1.65-19.51 9.09-27.96 21.89-8.46 12.82-15.71 29.2-21.8 48.87-6.09 19.68-10.78 41.65-14.13 65.88-3.35 24.24-5.02 49.13-5.02 74.93 0 21.59 1.45 41.29 4.36 59.34 2.91 18.04 7.08 33.65 12.53 46.87s12.12 23.57 20.05 30.97c7.93 7.39 16.91 11.14 26.94 11.07 11.71-.08 22.25-4.69 31.56-13.93 9.3-9.25 17.21-21.75 23.68-37.48s11.45-33.98 14.92-54.72 5.21-42.45 5.21-65.15c0-15.3-.76-30.74-2.26-46.29zm-67.36 90.8c-17.02 0-30.82-32.1-30.82-71.69s13.8-71.69 30.82-71.69 30.82 32.1 30.82 71.69-13.8 71.69-30.82 71.69z"/></g></svg>